# xmcd
#
# Track frame offsets: 
#        150
#        19047
#        39605
#        54642
#        71072
#        81767
#        89182
#        104100
#        147075
#        162305
#
# Disc length: 2341 seconds
#
# Revision: 2
# Processed by: cddbd v1.5.2PL0 Copyright (c) Steve Scherf et al.
# Submitted via: ExactAudioCopyFreeDBPlugin 1.0
#
DISCID=8f09230a
DTITLE=Tinsley Ellis - Cool On It
DYEAR=1991
DGENRE=Blues
TTITLE0=Drivin' Woman
TTITLE1=Cool On It
TTITLE2=Hong Kong Mississippi
TTITLE3=Second Thoughts
TTITLE4=Sailor's Grave On The Prairie
TTITLE5=Greenwood Chainsaw Boogie
TTITLE6=Tulane
TTITLE7=Time To Quit
TTITLE8=Sugaree
TTITLE9=Wild Weekend
EXTD=
EXTT0=
EXTT1=
EXTT2=
EXTT3=
EXTT4=
EXTT5=
EXTT6=
EXTT7=
EXTT8=
EXTT9=
PLAYORDER=
